<svg width="54" height="59" viewBox="0 0 54 59" fill="none" xmlns="http://www.w3.org/2000/svg">
<path d="M37.3119 11.5518H3.5353C2.68738 11.5518 2 12.407 2 13.4621V44.0273C2 45.0823 2.68738 45.9376 3.5353 45.9376H37.3119C38.1598 45.9376 38.8472 45.0823 38.8472 44.0273V13.4621C38.8472 12.407 38.1598 11.5518 37.3119 11.5518Z" stroke="black" stroke-width="4" stroke-linecap="round" stroke-linejoin="round"/>
<path d="M12.7466 11.5516C12.7466 9.01838 13.5554 6.58889 14.995 4.79761C16.4346 3.00633 18.3871 2 20.4231 2C22.459 2 24.4116 3.00633 25.8512 4.79761C27.2908 6.58889 28.0996 9.01838 28.0996 11.5516" stroke="black" stroke-width="4" stroke-linecap="round" stroke-linejoin="round"/>
<circle cx="39" cy="44" r="13.5" fill="#B4F18F" stroke="black" stroke-width="3"/>
<path d="M45 40L37 47.9996L33 44" stroke="black" stroke-width="3" stroke-linecap="round" stroke-linejoin="round"/>
</svg>
