<svg width="44" height="47" viewBox="0 0 44 47" fill="none" xmlns="http://www.w3.org/2000/svg">
<path id="Vector" d="M41.1875 9.125L2 9.12507M16.251 19.8125V34.0625M26.9385 19.8125V34.0625M37.626 9.125V42.9688C37.626 43.4412 37.4383 43.8942 37.1043 44.2283C36.7702 44.5623 36.3171 44.75 35.8447 44.75H7.34473C6.87231 44.75 6.41924 44.5623 6.08519 44.2283C5.75114 43.8942 5.56348 43.4412 5.56348 42.9688V9.125M30.501 9.125V5.5625C30.501 4.61767 30.1256 3.71153 29.4575 3.04343C28.7894 2.37533 27.8833 2 26.9385 2H16.251C15.3061 2 14.4 2.37533 13.7319 3.04343C13.0638 3.71153 12.6885 4.61767 12.6885 5.5625V9.125" stroke="#A8A8A8" stroke-width="4" stroke-linecap="round" stroke-linejoin="round"/>
</svg>
