<svg width="44" height="44" viewBox="0 0 44 44" fill="none" xmlns="http://www.w3.org/2000/svg">
<path d="M23.1549 41.462L38.7876 22.8581C42.6287 18.2869 43.1954 10.7666 39.5605 5.96265C38.6499 4.75586 37.5424 3.78249 36.3053 3.10194C35.0683 2.42138 33.7277 2.04791 32.3653 2.00431C31.003 1.96072 29.6475 2.2479 28.3815 2.84835C27.1155 3.4488 25.9656 4.34992 25.0019 5.49674L22.0636 8.99344L19.5268 5.97438C15.6857 1.4032 9.36646 0.728791 5.32976 5.05468C4.31571 6.13824 3.4978 7.45632 2.92594 8.9285C2.35408 10.4007 2.04026 11.9961 2.00363 13.6174C1.96699 15.2386 2.20831 16.8518 2.71286 18.3584C3.21741 19.865 3.97461 21.2335 4.93826 22.3804L20.9723 41.462C21.2617 41.8065 21.6543 42 22.0636 42C22.4729 42 22.8655 41.8065 23.1549 41.462Z" fill="#FF2A50" fill-opacity="0.5" stroke="black" stroke-width="4" stroke-linecap="round" stroke-linejoin="round"/>
</svg>
