<svg width="54" height="44" viewBox="0 0 54 44" fill="none" xmlns="http://www.w3.org/2000/svg">
<g id="Group 3">
<path id="Vector" d="M32.6819 35.75L2 35.7501" stroke="black" stroke-width="3" stroke-linecap="round" stroke-linejoin="round"/>
<path id="Vector_2" d="M52 35.7501L44.0454 35.75" stroke="black" stroke-width="3" stroke-linecap="round" stroke-linejoin="round"/>
<path id="Vector_3" d="M38.3637 42C41.5017 42 44.0455 39.2018 44.0455 35.75C44.0455 32.2982 41.5017 29.5 38.3637 29.5C35.2257 29.5 32.6819 32.2982 32.6819 35.75C32.6819 39.2018 35.2257 42 38.3637 42Z" stroke="black" stroke-width="3" stroke-linecap="round" stroke-linejoin="round"/>
<path id="Vector_4" d="M14.5 8.25044L2 8.24976" stroke="black" stroke-width="3" stroke-linecap="round" stroke-linejoin="round"/>
<path id="Vector_5" d="M51.9999 8.24976L25.8635 8.25044" stroke="black" stroke-width="3" stroke-linecap="round" stroke-linejoin="round"/>
<path id="Vector_6" d="M20.1818 14.5C23.3198 14.5 25.8637 11.7018 25.8637 8.25C25.8637 4.79822 23.3198 2 20.1818 2C17.0438 2 14.5 4.79822 14.5 8.25C14.5 11.7018 17.0438 14.5 20.1818 14.5Z" stroke="black" stroke-width="3" stroke-linecap="round" stroke-linejoin="round"/>
</g>
</svg>
